<?xml version="1.0" encoding="utf-8"?>
<!-- Generator: Adobe Illustrator 17.1.0, SVG Export Plug-In . SVG Version: 6.00 Build 0)  -->
<!DOCTYPE svg PUBLIC "-//W3C//DTD SVG 1.1//EN" "http://www.w3.org/Graphics/SVG/1.1/DTD/svg11.dtd">
<svg version="1.1" id="Ebene_1" xmlns="http://www.w3.org/2000/svg" xmlns:xlink="http://www.w3.org/1999/xlink" x="0px" y="0px"
	 viewBox="0 0 170 204" enable-background="new 0 0 170 204" xml:space="preserve">
<g id="linkedin">
	<rect y="170" fill="#0976B4" width="170" height="34"/>
	<g>
		<path fill="#FFFFFF" d="M90.8,195h2.3c0.3,0,0.6-0.3,0.6-0.6v-10c0-0.3-0.3-0.6-0.6-0.6h-2.3c-0.3,0-0.6,0.3-0.6,0.6v10
			C90.2,194.7,90.5,195,90.8,195z"/>
		<path fill="#FFFFFF" d="M90.8,182.2h2.3c0.3,0,0.6-0.3,0.6-0.6v-2c0-0.3-0.3-0.6-0.6-0.6h-2.3c-0.3,0-0.6,0.3-0.6,0.6v2
			C90.2,181.9,90.5,182.2,90.8,182.2z"/>
		<path fill="#FFFFFF" d="M106.9,185.1c-0.3-0.4-0.8-0.8-1.4-1c-0.6-0.3-1.3-0.4-2.1-0.4c-1.5,0-2.8,0.6-3.9,1.8
			c-0.2,0.2-0.4,0.2-0.4-0.1v-0.8c0-0.3-0.3-0.6-0.6-0.6h-2c-0.3,0-0.6,0.3-0.6,0.6v10c0,0.3,0.3,0.6,0.6,0.6h2.3
			c0.3,0,0.6-0.3,0.6-0.6V191c0-1.4,0.1-2.4,0.3-3c0.2-0.5,0.5-1,1-1.3c0.5-0.3,1-0.5,1.6-0.5c0.5,0,0.9,0.1,1.2,0.3
			c0.3,0.2,0.6,0.5,0.7,1c0.1,0.4,0.2,1.3,0.2,2.7v4.2c0,0.3,0.3,0.6,0.6,0.6h2.3c0.3,0,0.6-0.3,0.6-0.6v-5.6c0-1-0.1-1.8-0.2-2.3
			S107.2,185.5,106.9,185.1z"/>
	</g>
	<g>
		<path fill="#FFFFFF" d="M121.5,192.7c0.4,0,0.9-0.1,1.3-0.2v1.4c-0.2,0.1-0.5,0.2-0.8,0.2c-0.3,0.1-0.7,0.1-1,0.1
			c-1.7,0-2.6-0.9-2.6-2.8v-4.7h-1.2V186l1.3-0.7l0.6-1.8h1.1v1.9h2.5v1.4h-2.5v4.6c0,0.4,0.1,0.8,0.3,1
			C120.9,192.6,121.2,192.7,121.5,192.7z"/>
		<path fill="#FFFFFF" d="M128.2,194.2c-1.3,0-2.4-0.4-3.2-1.2c-0.8-0.8-1.1-1.9-1.1-3.2c0-1.4,0.4-2.5,1.1-3.3
			c0.7-0.8,1.7-1.2,2.9-1.2c1.1,0,2,0.3,2.7,1c0.7,0.7,1,1.6,1,2.9v1h-5.8c0,0.8,0.3,1.5,0.7,1.9c0.4,0.5,1,0.7,1.8,0.7
			c0.5,0,1,0,1.4-0.1c0.4-0.1,0.9-0.3,1.4-0.5v1.5c-0.4,0.2-0.9,0.4-1.4,0.5C129.4,194.2,128.8,194.2,128.2,194.2z M127.9,186.7
			c-0.6,0-1.1,0.2-1.4,0.6c-0.4,0.4-0.6,0.9-0.6,1.6h3.9c0-0.7-0.2-1.3-0.5-1.6C129,186.8,128.5,186.7,127.9,186.7z"/>
		<path fill="#FFFFFF" d="M133.6,183.1c0-0.3,0.1-0.6,0.3-0.8c0.2-0.2,0.4-0.3,0.8-0.3c0.3,0,0.6,0.1,0.8,0.3
			c0.2,0.2,0.3,0.4,0.3,0.8c0,0.3-0.1,0.6-0.3,0.7s-0.4,0.3-0.8,0.3c-0.3,0-0.6-0.1-0.8-0.3S133.6,183.4,133.6,183.1z M135.5,194.1
			h-1.8v-8.6h1.8V194.1z"/>
		<path fill="#FFFFFF" d="M139.8,194.1H138v-12.2h1.8V194.1z"/>
		<path fill="#FFFFFF" d="M146.2,194.2c-1.3,0-2.4-0.4-3.2-1.2c-0.8-0.8-1.1-1.9-1.1-3.2c0-1.4,0.4-2.5,1.1-3.3
			c0.7-0.8,1.7-1.2,2.9-1.2c1.1,0,2,0.3,2.7,1c0.7,0.7,1,1.6,1,2.9v1h-5.8c0,0.8,0.3,1.5,0.7,1.9c0.4,0.5,1,0.7,1.8,0.7
			c0.5,0,1,0,1.4-0.1c0.4-0.1,0.9-0.3,1.4-0.5v1.5c-0.4,0.2-0.9,0.4-1.4,0.5C147.3,194.2,146.8,194.2,146.2,194.2z M145.9,186.7
			c-0.6,0-1.1,0.2-1.4,0.6c-0.4,0.4-0.6,0.9-0.6,1.6h3.9c0-0.7-0.2-1.3-0.5-1.6C146.9,186.8,146.4,186.7,145.9,186.7z"/>
		<path fill="#FFFFFF" d="M159.2,194.1h-1.8v-5.3c0-0.7-0.1-1.2-0.4-1.5c-0.3-0.3-0.7-0.5-1.3-0.5c-0.8,0-1.3,0.2-1.7,0.7
			c-0.4,0.5-0.5,1.2-0.5,2.3v4.3h-1.8v-8.6h1.4l0.3,1.1h0.1c0.3-0.4,0.6-0.7,1.1-1c0.5-0.2,1-0.3,1.6-0.3c2.1,0,3.1,1.1,3.1,3.2
			V194.1z"/>
	</g>
	<polygon fill="#FFFFFF" points="81,171 81,183 85,187 81,191 81,203 1,203 1,171 	"/>
</g>
<g id="xing">
	<rect y="136" fill="#026466" width="170" height="34"/>
	<g>
		<path fill="#FFFFFF" d="M121.5,158.7c0.4,0,0.9-0.1,1.3-0.2v1.4c-0.2,0.1-0.5,0.2-0.8,0.2c-0.3,0.1-0.7,0.1-1,0.1
			c-1.7,0-2.6-0.9-2.6-2.8v-4.7h-1.2V152l1.3-0.7l0.6-1.8h1.1v1.9h2.5v1.4h-2.5v4.6c0,0.4,0.1,0.8,0.3,1
			C120.9,158.6,121.2,158.7,121.5,158.7z"/>
		<path fill="#FFFFFF" d="M128.2,160.2c-1.3,0-2.4-0.4-3.2-1.2c-0.8-0.8-1.1-1.9-1.1-3.2c0-1.4,0.4-2.5,1.1-3.3
			c0.7-0.8,1.7-1.2,2.9-1.2c1.1,0,2,0.3,2.7,1c0.7,0.7,1,1.6,1,2.9v1h-5.8c0,0.8,0.3,1.5,0.7,1.9c0.4,0.5,1,0.7,1.8,0.7
			c0.5,0,1,0,1.4-0.1c0.4-0.1,0.9-0.3,1.4-0.5v1.5c-0.4,0.2-0.9,0.4-1.4,0.5C129.4,160.2,128.8,160.2,128.2,160.2z M127.9,152.7
			c-0.6,0-1.1,0.2-1.4,0.6c-0.4,0.4-0.6,0.9-0.6,1.6h3.9c0-0.7-0.2-1.3-0.5-1.6C129,152.8,128.5,152.7,127.9,152.7z"/>
		<path fill="#FFFFFF" d="M133.6,149.1c0-0.3,0.1-0.6,0.3-0.8c0.2-0.2,0.4-0.3,0.8-0.3c0.3,0,0.6,0.1,0.8,0.3
			c0.2,0.2,0.3,0.4,0.3,0.8c0,0.3-0.1,0.6-0.3,0.7s-0.4,0.3-0.8,0.3c-0.3,0-0.6-0.1-0.8-0.3S133.6,149.4,133.6,149.1z M135.5,160.1
			h-1.8v-8.6h1.8V160.1z"/>
		<path fill="#FFFFFF" d="M139.8,160.1H138v-12.2h1.8V160.1z"/>
		<path fill="#FFFFFF" d="M146.2,160.2c-1.3,0-2.4-0.4-3.2-1.2c-0.8-0.8-1.1-1.9-1.1-3.2c0-1.4,0.4-2.5,1.1-3.3
			c0.7-0.8,1.7-1.2,2.9-1.2c1.1,0,2,0.3,2.7,1c0.7,0.7,1,1.6,1,2.9v1h-5.8c0,0.8,0.3,1.5,0.7,1.9c0.4,0.5,1,0.7,1.8,0.7
			c0.5,0,1,0,1.4-0.1c0.4-0.1,0.9-0.3,1.4-0.5v1.5c-0.4,0.2-0.9,0.4-1.4,0.5C147.3,160.2,146.8,160.2,146.2,160.2z M145.9,152.7
			c-0.6,0-1.1,0.2-1.4,0.6c-0.4,0.4-0.6,0.9-0.6,1.6h3.9c0-0.7-0.2-1.3-0.5-1.6C146.9,152.8,146.4,152.7,145.9,152.7z"/>
		<path fill="#FFFFFF" d="M159.2,160.1h-1.8v-5.3c0-0.7-0.1-1.2-0.4-1.5c-0.3-0.3-0.7-0.5-1.3-0.5c-0.8,0-1.3,0.2-1.7,0.7
			c-0.4,0.5-0.5,1.2-0.5,2.3v4.3h-1.8v-8.6h1.4l0.3,1.1h0.1c0.3-0.4,0.6-0.7,1.1-1c0.5-0.2,1-0.3,1.6-0.3c2.1,0,3.1,1.1,3.1,3.2
			V160.1z"/>
	</g>
	<polygon fill="#FFFFFF" points="81,137 81,149 85,153 81,157 81,169 1,169 1,137 	"/>
	<g>
		<path fill="#FFFFFF" d="M93.3,157c0.3,0,0.6-0.2,0.8-0.6c2-3.5,3-5.4,3.1-5.5l-2-3.5c-0.2-0.4-0.5-0.5-0.8-0.5h-2.9
			c-0.2,0-0.3,0.1-0.4,0.2c-0.1,0.1-0.1,0.3,0,0.4l1.9,3.4c0,0,0,0,0,0l-3.1,5.4c-0.1,0.2-0.1,0.3,0,0.4c0.1,0.1,0.2,0.2,0.4,0.2
			H93.3z"/>
		<path fill="#FFFFFF" d="M106.6,143h-2.9c-0.3,0-0.6,0.2-0.8,0.5c-4.1,7.3-6.3,11.1-6.4,11.4l4.1,7.5c0.2,0.4,0.5,0.5,0.8,0.5h2.9
			c0.2,0,0.3-0.1,0.4-0.2c0.1-0.1,0.1-0.3,0-0.4l-4.1-7.4v0l6.4-11.3c0.1-0.2,0.1-0.3,0-0.4C106.9,143.1,106.8,143,106.6,143z"/>
	</g>
</g>
<g id="pinteres">
	<rect y="102" fill="#CC2127" width="170" height="34"/>
	<g>
		<path fill="#FFFFFF" d="M122.7,125.8c-1.1,0-1.9-0.4-2.5-1.2H120c0.1,0.7,0.1,1.2,0.1,1.3v3.5h-1.8V117h1.5c0,0.2,0.1,0.5,0.3,1.2
			h0.1c0.6-0.9,1.4-1.3,2.6-1.3c1.1,0,1.9,0.4,2.5,1.2s0.9,1.9,0.9,3.3c0,1.4-0.3,2.5-0.9,3.3C124.6,125.4,123.8,125.8,122.7,125.8z
			 M122.2,118.3c-0.7,0-1.3,0.2-1.6,0.6c-0.3,0.4-0.5,1.1-0.5,2v0.3c0,1.1,0.2,1.8,0.5,2.3c0.3,0.5,0.9,0.7,1.6,0.7
			c0.6,0,1.1-0.3,1.5-0.8c0.3-0.5,0.5-1.3,0.5-2.2c0-1-0.2-1.7-0.5-2.2C123.4,118.6,122.9,118.3,122.2,118.3z"/>
		<path fill="#FFFFFF" d="M128.1,114.7c0-0.3,0.1-0.6,0.3-0.8c0.2-0.2,0.4-0.3,0.8-0.3c0.3,0,0.6,0.1,0.8,0.3
			c0.2,0.2,0.3,0.4,0.3,0.8c0,0.3-0.1,0.6-0.3,0.7s-0.4,0.3-0.8,0.3c-0.3,0-0.6-0.1-0.8-0.3S128.1,115,128.1,114.7z M130.1,125.6
			h-1.8V117h1.8V125.6z"/>
		<path fill="#FFFFFF" d="M140.2,125.6h-1.8v-5.3c0-0.7-0.1-1.2-0.4-1.5s-0.7-0.5-1.3-0.5c-0.8,0-1.3,0.2-1.7,0.7
			c-0.4,0.5-0.5,1.2-0.5,2.3v4.3h-1.8V117h1.4l0.3,1.1h0.1c0.3-0.4,0.6-0.7,1.1-1c0.5-0.2,1-0.3,1.6-0.3c2.1,0,3.1,1.1,3.1,3.2
			V125.6z"/>
	</g>
	<polygon fill="#FFFFFF" points="81,103 81,115 85,119 81,123 81,135 1,135 1,103 	"/>
	<path fill="#FFFFFF" d="M105.5,114.1c-0.5-4-4.5-6-8.7-5.5c-3.3,0.4-6.6,3.1-6.8,6.9c-0.1,2.3,0.6,4.1,2.8,4.6
		c1-1.7-0.3-2.1-0.5-3.3c-0.8-5.1,5.8-8.5,9.3-5c2.4,2.4,0.8,10-3.1,9.2c-3.7-0.7,1.8-6.7-1.1-7.9c-2.4-1-3.7,2.9-2.6,4.9
		c-0.7,3.3-2.1,6.4-1.5,10.6c1.9-1.4,2.5-4,3.1-6.8c1,0.6,1.5,1.2,2.7,1.3C103.6,123.4,106.1,118.6,105.5,114.1z"/>
</g>
<g id="Googleplus">
	<rect y="68" fill="#DD4B39" width="170" height="34"/>
	<g>
		<path fill="#FFFFFF" d="M121.6,90.6c0.4,0,0.9-0.1,1.3-0.2v1.4c-0.2,0.1-0.5,0.2-0.8,0.2c-0.3,0.1-0.7,0.1-1,0.1
			c-1.7,0-2.6-0.9-2.6-2.8v-4.7h-1.2v-0.8l1.3-0.7l0.6-1.8h1.1v1.9h2.5v1.4h-2.5v4.6c0,0.4,0.1,0.8,0.3,1
			C121,90.5,121.3,90.6,121.6,90.6z"/>
		<path fill="#FFFFFF" d="M128.3,92.1c-1.3,0-2.4-0.4-3.2-1.2c-0.8-0.8-1.1-1.9-1.1-3.2c0-1.4,0.4-2.5,1.1-3.3
			c0.7-0.8,1.7-1.2,2.9-1.2c1.1,0,2,0.3,2.7,1c0.7,0.7,1,1.6,1,2.9v1h-5.8c0,0.8,0.3,1.5,0.7,1.9c0.4,0.5,1,0.7,1.8,0.7
			c0.5,0,1,0,1.4-0.1c0.4-0.1,0.9-0.3,1.4-0.5v1.5c-0.4,0.2-0.9,0.4-1.4,0.5C129.4,92.1,128.9,92.1,128.3,92.1z M128,84.6
			c-0.6,0-1.1,0.2-1.4,0.6c-0.4,0.4-0.6,0.9-0.6,1.6h3.9c0-0.7-0.2-1.3-0.5-1.6C129,84.8,128.6,84.6,128,84.6z"/>
		<path fill="#FFFFFF" d="M133.6,81c0-0.3,0.1-0.6,0.3-0.8c0.2-0.2,0.4-0.3,0.8-0.3c0.3,0,0.6,0.1,0.8,0.3c0.2,0.2,0.3,0.4,0.3,0.8
			c0,0.3-0.1,0.6-0.3,0.7s-0.4,0.3-0.8,0.3c-0.3,0-0.6-0.1-0.8-0.3S133.6,81.4,133.6,81z M135.6,92h-1.8v-8.6h1.8V92z"/>
		<path fill="#FFFFFF" d="M139.9,92h-1.8V79.8h1.8V92z"/>
		<path fill="#FFFFFF" d="M146.3,92.1c-1.3,0-2.4-0.4-3.2-1.2c-0.8-0.8-1.1-1.9-1.1-3.2c0-1.4,0.4-2.5,1.1-3.3
			c0.7-0.8,1.7-1.2,2.9-1.2c1.1,0,2,0.3,2.7,1c0.7,0.7,1,1.6,1,2.9v1h-5.8c0,0.8,0.3,1.5,0.7,1.9c0.4,0.5,1,0.7,1.8,0.7
			c0.5,0,1,0,1.4-0.1c0.4-0.1,0.9-0.3,1.4-0.5v1.5c-0.4,0.2-0.9,0.4-1.4,0.5C147.4,92.1,146.9,92.1,146.3,92.1z M145.9,84.6
			c-0.6,0-1.1,0.2-1.4,0.6c-0.4,0.4-0.6,0.9-0.6,1.6h3.9c0-0.7-0.2-1.3-0.5-1.6C147,84.8,146.5,84.6,145.9,84.6z"/>
		<path fill="#FFFFFF" d="M159.3,92h-1.8v-5.3c0-0.7-0.1-1.2-0.4-1.5c-0.3-0.3-0.7-0.5-1.3-0.5c-0.8,0-1.3,0.2-1.7,0.7
			c-0.4,0.5-0.5,1.2-0.5,2.3V92h-1.8v-8.6h1.4l0.3,1.1h0.1c0.3-0.4,0.6-0.7,1.1-1c0.5-0.2,1-0.3,1.6-0.3c2.1,0,3.1,1.1,3.1,3.2V92z"
			/>
	</g>
	<polygon fill="#FFFFFF" points="81,69 81,81 85,85 81,89 81,101 1,101 1,69 	"/>
	<g>
		<path fill="#FFFFFF" d="M100.3,86.4l-0.9-0.7c-0.3-0.2-0.7-0.5-0.7-1.1c0-0.6,0.4-0.9,0.7-1.3c1.1-0.9,2.2-1.8,2.2-3.7
			c0-2-1.2-3-1.8-3.5h1.6L103,75h-5.1c-1.4,0-3.4,0.3-4.9,1.6c-1.1,1-1.7,2.3-1.7,3.5c0,2,1.6,4.1,4.3,4.1c0.3,0,0.5,0,0.8-0.1
			c-0.1,0.3-0.3,0.6-0.3,1c0,0.8,0.4,1.3,0.8,1.8c-1.2,0.1-3.4,0.2-5,1.2c-1.5,0.9-2,2.2-2,3.2c0,1.9,1.8,3.7,5.6,3.7
			c4.5,0,6.8-2.5,6.8-4.9C102.4,88.3,101.4,87.4,100.3,86.4z M96.8,83.4c-2.2,0-3.3-2.9-3.3-4.6c0-0.7,0.1-1.4,0.6-1.9
			c0.4-0.5,1.1-0.9,1.8-0.9c2.2,0,3.3,2.9,3.3,4.8c0,0.5-0.1,1.3-0.7,1.9C98.2,83.1,97.5,83.4,96.8,83.4z M96.9,93.9
			c-2.8,0-4.6-1.3-4.6-3.2c0-1.9,1.7-2.5,2.2-2.7c1.1-0.4,2.5-0.4,2.7-0.4c0.3,0,0.4,0,0.6,0c2,1.4,2.8,2.1,2.8,3.4
			C100.7,92.7,99.4,93.9,96.9,93.9z"/>
		<polygon fill="#FFFFFF" points="106.8,83.4 106.8,80.8 105.5,80.8 105.5,83.4 102.9,83.4 102.9,84.7 105.5,84.7 105.5,87.3 
			106.8,87.3 106.8,84.7 109.4,84.7 109.4,83.4 		"/>
	</g>
</g>
<g id="Twitter">
	<rect y="34" fill="#55ACEE" width="170" height="34"/>
	<g>
		<path fill="#FFFFFF" d="M121.5,56.7c0.4,0,0.9-0.1,1.3-0.2v1.4c-0.2,0.1-0.5,0.2-0.8,0.2c-0.3,0.1-0.7,0.1-1,0.1
			c-1.7,0-2.6-0.9-2.6-2.8v-4.7h-1.2v-0.8l1.3-0.7l0.6-1.8h1.1v1.9h2.5v1.4h-2.5v4.6c0,0.4,0.1,0.8,0.3,1
			C120.9,56.6,121.2,56.7,121.5,56.7z"/>
		<path fill="#FFFFFF" d="M132.1,58l-1.1-4c-0.1-0.4-0.4-1.4-0.7-3h-0.1c-0.3,1.4-0.5,2.4-0.7,3l-1.1,4h-2l-2.4-8.6h1.9l1.1,4.3
			c0.2,1.1,0.4,2,0.5,2.7h0c0.1-0.4,0.1-0.8,0.2-1.3c0.1-0.5,0.2-0.9,0.3-1.1l1.3-4.5h2l1.3,4.5c0.1,0.3,0.2,0.6,0.3,1.2
			c0.1,0.5,0.2,0.9,0.2,1.2h0.1c0.1-0.6,0.3-1.5,0.5-2.7l1.1-4.3h1.8l-2.4,8.6H132.1z"/>
		<path fill="#FFFFFF" d="M141.8,58.2c-1.3,0-2.4-0.4-3.2-1.2c-0.8-0.8-1.1-1.9-1.1-3.2c0-1.4,0.4-2.5,1.1-3.3
			c0.7-0.8,1.7-1.2,2.9-1.2c1.1,0,2,0.3,2.7,1c0.7,0.7,1,1.6,1,2.9v1h-5.8c0,0.8,0.3,1.5,0.7,1.9c0.4,0.5,1,0.7,1.8,0.7
			c0.5,0,1,0,1.4-0.1c0.4-0.1,0.9-0.3,1.4-0.5v1.5c-0.4,0.2-0.9,0.4-1.4,0.5C142.9,58.1,142.4,58.2,141.8,58.2z M141.4,50.6
			c-0.6,0-1.1,0.2-1.4,0.6c-0.4,0.4-0.6,0.9-0.6,1.6h3.9c0-0.7-0.2-1.3-0.5-1.6C142.5,50.8,142,50.6,141.4,50.6z"/>
		<path fill="#FFFFFF" d="M151,58.2c-1.3,0-2.4-0.4-3.2-1.2c-0.8-0.8-1.1-1.9-1.1-3.2c0-1.4,0.4-2.5,1.1-3.3
			c0.7-0.8,1.7-1.2,2.9-1.2c1.1,0,2,0.3,2.7,1c0.7,0.7,1,1.6,1,2.9v1h-5.8c0,0.8,0.3,1.5,0.7,1.9c0.4,0.5,1,0.7,1.8,0.7
			c0.5,0,1,0,1.4-0.1c0.4-0.1,0.9-0.3,1.4-0.5v1.5c-0.4,0.2-0.9,0.4-1.4,0.5S151.6,58.2,151,58.2z M150.7,50.6
			c-0.6,0-1.1,0.2-1.4,0.6c-0.4,0.4-0.6,0.9-0.6,1.6h3.9c0-0.7-0.2-1.3-0.5-1.6S151.3,50.6,150.7,50.6z"/>
		<path fill="#FFFFFF" d="M159.7,56.7c0.4,0,0.9-0.1,1.3-0.2v1.4c-0.2,0.1-0.5,0.2-0.8,0.2c-0.3,0.1-0.7,0.1-1,0.1
			c-1.7,0-2.6-0.9-2.6-2.8v-4.7h-1.2v-0.8l1.3-0.7l0.6-1.8h1.1v1.9h2.5v1.4h-2.5v4.6c0,0.4,0.1,0.8,0.3,1S159.3,56.7,159.7,56.7z"/>
	</g>
	<polygon fill="#FFFFFF" points="81,35 81,47 85,51 81,55 81,67 1,67 1,35 	"/>
	<path fill="#FFFFFF" d="M112,44.2c-0.8,0.4-1.7,0.6-2.6,0.7c0.9-0.6,1.6-1.4,2-2.5c-0.9,0.5-1.8,0.9-2.9,1.1
		c-0.8-0.9-2-1.4-3.3-1.4c-2.5,0-4.5,2-4.5,4.5c0,0.4,0,0.7,0.1,1c-3.8-0.2-7.1-2-9.3-4.7c-0.4,0.7-0.6,1.4-0.6,2.3
		c0,1.6,0.8,2.9,2,3.8c-0.7,0-1.4-0.2-2-0.6v0.1c0,2.2,1.6,4,3.6,4.4c-0.4,0.1-0.8,0.2-1.2,0.2c-0.3,0-0.6,0-0.8-0.1
		c0.6,1.8,2.2,3.1,4.2,3.1c-1.5,1.2-3.5,1.9-5.6,1.9c-0.4,0-0.7,0-1.1-0.1c2,1.3,4.4,2,6.9,2c8.3,0,12.8-6.9,12.8-12.8l0-0.6
		C110.6,45.9,111.4,45.1,112,44.2z"/>
</g>
<g id="facebook">
	<rect fill="#3B5998" width="170" height="34"/>
	<g>
		<path fill="#FFFFFF" d="M121.5,22.7c0.4,0,0.9-0.1,1.3-0.2v1.4c-0.2,0.1-0.5,0.2-0.8,0.2c-0.3,0.1-0.7,0.1-1,0.1
			c-1.7,0-2.6-0.9-2.6-2.8v-4.7h-1.2V16l1.3-0.7l0.6-1.8h1.1v1.9h2.5v1.4h-2.5v4.6c0,0.4,0.1,0.8,0.3,1
			C120.9,22.6,121.2,22.7,121.5,22.7z"/>
		<path fill="#FFFFFF" d="M128.2,24.2c-1.3,0-2.4-0.4-3.2-1.2c-0.8-0.8-1.1-1.9-1.1-3.2c0-1.4,0.4-2.5,1.1-3.3
			c0.7-0.8,1.7-1.2,2.9-1.2c1.1,0,2,0.3,2.7,1c0.7,0.7,1,1.6,1,2.9v1h-5.8c0,0.8,0.3,1.5,0.7,1.9c0.4,0.5,1,0.7,1.8,0.7
			c0.5,0,1,0,1.4-0.1c0.4-0.1,0.9-0.3,1.4-0.5v1.5c-0.4,0.2-0.9,0.4-1.4,0.5C129.4,24.2,128.8,24.2,128.2,24.2z M127.9,16.7
			c-0.6,0-1.1,0.2-1.4,0.6c-0.4,0.4-0.6,0.9-0.6,1.6h3.9c0-0.7-0.2-1.3-0.5-1.6C129,16.8,128.5,16.7,127.9,16.7z"/>
		<path fill="#FFFFFF" d="M133.6,13.1c0-0.3,0.1-0.6,0.3-0.8c0.2-0.2,0.4-0.3,0.8-0.3c0.3,0,0.6,0.1,0.8,0.3
			c0.2,0.2,0.3,0.4,0.3,0.8c0,0.3-0.1,0.6-0.3,0.7s-0.4,0.3-0.8,0.3c-0.3,0-0.6-0.1-0.8-0.3S133.6,13.4,133.6,13.1z M135.5,24.1
			h-1.8v-8.6h1.8V24.1z"/>
		<path fill="#FFFFFF" d="M139.8,24.1H138V11.9h1.8V24.1z"/>
		<path fill="#FFFFFF" d="M146.2,24.2c-1.3,0-2.4-0.4-3.2-1.2c-0.8-0.8-1.1-1.9-1.1-3.2c0-1.4,0.4-2.5,1.1-3.3
			c0.7-0.8,1.7-1.2,2.9-1.2c1.1,0,2,0.3,2.7,1c0.7,0.7,1,1.6,1,2.9v1h-5.8c0,0.8,0.3,1.5,0.7,1.9c0.4,0.5,1,0.7,1.8,0.7
			c0.5,0,1,0,1.4-0.1c0.4-0.1,0.9-0.3,1.4-0.5v1.5c-0.4,0.2-0.9,0.4-1.4,0.5C147.3,24.2,146.8,24.2,146.2,24.2z M145.9,16.7
			c-0.6,0-1.1,0.2-1.4,0.6c-0.4,0.4-0.6,0.9-0.6,1.6h3.9c0-0.7-0.2-1.3-0.5-1.6C146.9,16.8,146.4,16.7,145.9,16.7z"/>
		<path fill="#FFFFFF" d="M159.2,24.1h-1.8v-5.3c0-0.7-0.1-1.2-0.4-1.5c-0.3-0.3-0.7-0.5-1.3-0.5c-0.8,0-1.3,0.2-1.7,0.7
			c-0.4,0.5-0.5,1.2-0.5,2.3v4.3h-1.8v-8.6h1.4l0.3,1.1h0.1c0.3-0.4,0.6-0.7,1.1-1c0.5-0.2,1-0.3,1.6-0.3c2.1,0,3.1,1.1,3.1,3.2
			V24.1z"/>
	</g>
	<path id="Facebook__x28_alt_x29_" fill="#FFFFFF" d="M110,10.3c0-1.8-1.6-3.3-3.3-3.3H93.3C91.6,7,90,8.6,90,10.3v13.3
		c0,1.8,1.6,3.3,3.3,3.3h6.7v-7.6h-2.4v-3.3h2.4v-1.3c0-2.2,1.7-4.3,3.8-4.3h2.7v3.3h-2.7c-0.3,0-0.6,0.4-0.6,0.9v1.3h3.3v3.3h-3.3
		V27h3.6c1.8,0,3.3-1.6,3.3-3.3V10.3z"/>
	<polygon fill="#FFFFFF" points="81,1 81,13 85,17 81,21 81,33 1,33 1,1 	"/>
</g>
</svg>
