<?xml version="1.0" encoding="utf-8"?>
<!-- Generator: Adobe Illustrator 17.1.0, SVG Export Plug-In . SVG Version: 6.00 Build 0)  -->
<!DOCTYPE svg PUBLIC "-//W3C//DTD SVG 1.1//EN" "http://www.w3.org/Graphics/SVG/1.1/DTD/svg11.dtd">
<svg version="1.1" id="Ebene_1" xmlns="http://www.w3.org/2000/svg" xmlns:xlink="http://www.w3.org/1999/xlink" x="0px" y="0px"
	 viewBox="0 0 120 372" enable-background="new 0 0 120 372" xml:space="preserve">
<g id="linkedin">
	<rect y="310" fill="#0976B4" width="120" height="62"/>
	<g>
		<path fill="#FFFFFF" d="M55.5,363.7c0.4,0,0.9-0.1,1.3-0.2v1.4c-0.2,0.1-0.5,0.2-0.8,0.2c-0.3,0.1-0.7,0.1-1,0.1
			c-1.7,0-2.6-0.9-2.6-2.8v-4.7h-1.2V357l1.3-0.7l0.6-1.8h1.1v1.9h2.5v1.4h-2.5v4.6c0,0.4,0.1,0.8,0.3,1
			C54.9,363.6,55.2,363.7,55.5,363.7z"/>
		<path fill="#FFFFFF" d="M62.2,365.2c-1.3,0-2.4-0.4-3.2-1.2c-0.8-0.8-1.1-1.9-1.1-3.2c0-1.4,0.4-2.5,1.1-3.3
			c0.7-0.8,1.7-1.2,2.9-1.2c1.1,0,2,0.3,2.7,1c0.7,0.7,1,1.6,1,2.9v1h-5.8c0,0.8,0.3,1.5,0.7,1.9c0.4,0.5,1,0.7,1.8,0.7
			c0.5,0,1,0,1.4-0.1c0.4-0.1,0.9-0.3,1.4-0.5v1.5c-0.4,0.2-0.9,0.4-1.4,0.5C63.4,365.2,62.8,365.2,62.2,365.2z M61.9,357.7
			c-0.6,0-1.1,0.2-1.4,0.6c-0.4,0.4-0.6,0.9-0.6,1.6h3.9c0-0.7-0.2-1.3-0.5-1.6C63,357.8,62.5,357.7,61.9,357.7z"/>
		<path fill="#FFFFFF" d="M67.6,354.1c0-0.3,0.1-0.6,0.3-0.8c0.2-0.2,0.4-0.3,0.8-0.3c0.3,0,0.6,0.1,0.8,0.3
			c0.2,0.2,0.3,0.4,0.3,0.8c0,0.3-0.1,0.6-0.3,0.7s-0.4,0.3-0.8,0.3c-0.3,0-0.6-0.1-0.8-0.3S67.6,354.4,67.6,354.1z M69.5,365.1
			h-1.8v-8.6h1.8V365.1z"/>
		<path fill="#FFFFFF" d="M73.8,365.1H72v-12.2h1.8V365.1z"/>
		<path fill="#FFFFFF" d="M80.2,365.2c-1.3,0-2.4-0.4-3.2-1.2c-0.8-0.8-1.1-1.9-1.1-3.2c0-1.4,0.4-2.5,1.1-3.3
			c0.7-0.8,1.7-1.2,2.9-1.2c1.1,0,2,0.3,2.7,1c0.7,0.7,1,1.6,1,2.9v1h-5.8c0,0.8,0.3,1.5,0.7,1.9c0.4,0.5,1,0.7,1.8,0.7
			c0.5,0,1,0,1.4-0.1c0.4-0.1,0.9-0.3,1.4-0.5v1.5c-0.4,0.2-0.9,0.4-1.4,0.5C81.3,365.2,80.8,365.2,80.2,365.2z M79.9,357.7
			c-0.6,0-1.1,0.2-1.4,0.6c-0.4,0.4-0.6,0.9-0.6,1.6h3.9c0-0.7-0.2-1.3-0.5-1.6C80.9,357.8,80.4,357.7,79.9,357.7z"/>
		<path fill="#FFFFFF" d="M93.2,365.1h-1.8v-5.3c0-0.7-0.1-1.2-0.4-1.5c-0.3-0.3-0.7-0.5-1.3-0.5c-0.8,0-1.3,0.2-1.7,0.7
			c-0.4,0.5-0.5,1.2-0.5,2.3v4.3h-1.8v-8.6h1.4l0.3,1.1h0.1c0.3-0.4,0.6-0.7,1.1-1c0.5-0.2,1-0.3,1.6-0.3c2.1,0,3.1,1.1,3.1,3.2
			V365.1z"/>
	</g>
	<polygon fill="#FFFFFF" points="119,344 64.1,344 60,348 56,344 1,344 1,311 119,311 	"/>
	<g>
		<path fill="#FFFFFF" d="M15.6,366h2.3c0.3,0,0.6-0.3,0.6-0.6v-10c0-0.3-0.3-0.6-0.6-0.6h-2.3c-0.3,0-0.6,0.3-0.6,0.6v10
			C15,365.7,15.3,366,15.6,366z"/>
		<path fill="#FFFFFF" d="M15.6,353.2h2.3c0.3,0,0.6-0.3,0.6-0.6v-2c0-0.3-0.3-0.6-0.6-0.6h-2.3c-0.3,0-0.6,0.3-0.6,0.6v2
			C15,352.9,15.3,353.2,15.6,353.2z"/>
		<path fill="#FFFFFF" d="M31.7,356.1c-0.3-0.4-0.8-0.8-1.4-1c-0.6-0.3-1.3-0.4-2.1-0.4c-1.5,0-2.8,0.6-3.9,1.8
			c-0.2,0.2-0.4,0.2-0.4-0.1v-0.8c0-0.3-0.3-0.6-0.6-0.6h-2c-0.3,0-0.6,0.3-0.6,0.6v10c0,0.3,0.3,0.6,0.6,0.6h2.3
			c0.3,0,0.6-0.3,0.6-0.6V362c0-1.4,0.1-2.4,0.3-3c0.2-0.5,0.5-1,1-1.3s1-0.5,1.6-0.5c0.5,0,0.9,0.1,1.2,0.3c0.3,0.2,0.6,0.5,0.7,1
			c0.1,0.4,0.2,1.3,0.2,2.7v4.2c0,0.3,0.3,0.6,0.6,0.6h2.3c0.3,0,0.6-0.3,0.6-0.6v-5.6c0-1-0.1-1.8-0.2-2.3
			C32.2,357,32,356.5,31.7,356.1z"/>
	</g>
</g>
<g id="xing">
	<rect y="248" fill="#026466" width="120" height="62"/>
	<g>
		<path fill="#FFFFFF" d="M55.5,301.7c0.4,0,0.9-0.1,1.3-0.2v1.4c-0.2,0.1-0.5,0.2-0.8,0.2c-0.3,0.1-0.7,0.1-1,0.1
			c-1.7,0-2.6-0.9-2.6-2.8v-4.7h-1.2V295l1.3-0.7l0.6-1.8h1.1v1.9h2.5v1.4h-2.5v4.6c0,0.4,0.1,0.8,0.3,1
			C54.9,301.6,55.2,301.7,55.5,301.7z"/>
		<path fill="#FFFFFF" d="M62.2,303.2c-1.3,0-2.4-0.4-3.2-1.2c-0.8-0.8-1.1-1.9-1.1-3.2c0-1.4,0.4-2.5,1.1-3.3
			c0.7-0.8,1.7-1.2,2.9-1.2c1.1,0,2,0.3,2.7,1c0.7,0.7,1,1.6,1,2.9v1h-5.8c0,0.8,0.3,1.5,0.7,1.9c0.4,0.5,1,0.7,1.8,0.7
			c0.5,0,1,0,1.4-0.1c0.4-0.1,0.9-0.3,1.4-0.5v1.5c-0.4,0.2-0.9,0.4-1.4,0.5C63.4,303.2,62.8,303.2,62.2,303.2z M61.9,295.7
			c-0.6,0-1.1,0.2-1.4,0.6c-0.4,0.4-0.6,0.9-0.6,1.6h3.9c0-0.7-0.2-1.3-0.5-1.6C63,295.8,62.5,295.7,61.9,295.7z"/>
		<path fill="#FFFFFF" d="M67.6,292.1c0-0.3,0.1-0.6,0.3-0.8c0.2-0.2,0.4-0.3,0.8-0.3c0.3,0,0.6,0.1,0.8,0.3
			c0.2,0.2,0.3,0.4,0.3,0.8c0,0.3-0.1,0.6-0.3,0.7s-0.4,0.3-0.8,0.3c-0.3,0-0.6-0.1-0.8-0.3S67.6,292.4,67.6,292.1z M69.5,303.1
			h-1.8v-8.6h1.8V303.1z"/>
		<path fill="#FFFFFF" d="M73.8,303.1H72v-12.2h1.8V303.1z"/>
		<path fill="#FFFFFF" d="M80.2,303.2c-1.3,0-2.4-0.4-3.2-1.2c-0.8-0.8-1.1-1.9-1.1-3.2c0-1.4,0.4-2.5,1.1-3.3
			c0.7-0.8,1.7-1.2,2.9-1.2c1.1,0,2,0.3,2.7,1c0.7,0.7,1,1.6,1,2.9v1h-5.8c0,0.8,0.3,1.5,0.7,1.9c0.4,0.5,1,0.7,1.8,0.7
			c0.5,0,1,0,1.4-0.1c0.4-0.1,0.9-0.3,1.4-0.5v1.5c-0.4,0.2-0.9,0.4-1.4,0.5C81.3,303.2,80.8,303.2,80.2,303.2z M79.9,295.7
			c-0.6,0-1.1,0.2-1.4,0.6c-0.4,0.4-0.6,0.9-0.6,1.6h3.9c0-0.7-0.2-1.3-0.5-1.6C80.9,295.8,80.4,295.7,79.9,295.7z"/>
		<path fill="#FFFFFF" d="M93.2,303.1h-1.8v-5.3c0-0.7-0.1-1.2-0.4-1.5c-0.3-0.3-0.7-0.5-1.3-0.5c-0.8,0-1.3,0.2-1.7,0.7
			c-0.4,0.5-0.5,1.2-0.5,2.3v4.3h-1.8v-8.6h1.4l0.3,1.1h0.1c0.3-0.4,0.6-0.7,1.1-1c0.5-0.2,1-0.3,1.6-0.3c2.1,0,3.1,1.1,3.1,3.2
			V303.1z"/>
	</g>
	<polygon fill="#FFFFFF" points="119,282 64.1,282 60,286 56,282 1,282 1,249 119,249 	"/>
	<g>
		<path fill="#FFFFFF" d="M17.3,300c0.3,0,0.6-0.2,0.8-0.6c2-3.5,3-5.4,3.1-5.5l-2-3.5c-0.2-0.4-0.5-0.5-0.8-0.5h-2.9
			c-0.2,0-0.3,0.1-0.4,0.2c-0.1,0.1-0.1,0.3,0,0.4l1.9,3.4c0,0,0,0,0,0l-3.1,5.4c-0.1,0.2-0.1,0.3,0,0.4c0.1,0.1,0.2,0.2,0.4,0.2
			H17.3z"/>
		<path fill="#FFFFFF" d="M30.6,286h-2.9c-0.3,0-0.6,0.2-0.8,0.5c-4.1,7.3-6.3,11.1-6.4,11.4l4.1,7.5c0.2,0.4,0.5,0.5,0.8,0.5h2.9
			c0.2,0,0.3-0.1,0.4-0.2c0.1-0.1,0.1-0.3,0-0.4l-4.1-7.4v0l6.4-11.3c0.1-0.2,0.1-0.3,0-0.4C30.9,286.1,30.8,286,30.6,286z"/>
	</g>
</g>
<g id="pinteres">
	<rect y="186" fill="#CC2127" width="120" height="62"/>
	<g>
		<path fill="#FFFFFF" d="M56.7,241.2c-1.1,0-1.9-0.4-2.5-1.2H54c0.1,0.7,0.1,1.2,0.1,1.3v3.5h-1.8v-12.5h1.5c0,0.2,0.1,0.5,0.3,1.2
			h0.1c0.6-0.9,1.4-1.3,2.6-1.3c1.1,0,1.9,0.4,2.5,1.2s0.9,1.9,0.9,3.3c0,1.4-0.3,2.5-0.9,3.3C58.6,240.8,57.8,241.2,56.7,241.2z
			 M56.2,233.8c-0.7,0-1.3,0.2-1.6,0.6c-0.3,0.4-0.5,1.1-0.5,2v0.3c0,1.1,0.2,1.8,0.5,2.3c0.3,0.5,0.9,0.7,1.6,0.7
			c0.6,0,1.1-0.3,1.5-0.8c0.3-0.5,0.5-1.3,0.5-2.2c0-1-0.2-1.7-0.5-2.2C57.4,234,56.9,233.8,56.2,233.8z"/>
		<path fill="#FFFFFF" d="M62.1,230.1c0-0.3,0.1-0.6,0.3-0.8c0.2-0.2,0.4-0.3,0.8-0.3c0.3,0,0.6,0.1,0.8,0.3
			c0.2,0.2,0.3,0.4,0.3,0.8c0,0.3-0.1,0.6-0.3,0.7s-0.4,0.3-0.8,0.3c-0.3,0-0.6-0.1-0.8-0.3S62.1,230.4,62.1,230.1z M64.1,241.1
			h-1.8v-8.6h1.8V241.1z"/>
		<path fill="#FFFFFF" d="M74.2,241.1h-1.8v-5.3c0-0.7-0.1-1.2-0.4-1.5s-0.7-0.5-1.3-0.5c-0.8,0-1.3,0.2-1.7,0.7
			c-0.4,0.5-0.5,1.2-0.5,2.3v4.3h-1.8v-8.6H68l0.3,1.1h0.1c0.3-0.4,0.6-0.7,1.1-1c0.5-0.2,1-0.3,1.6-0.3c2.1,0,3.1,1.1,3.1,3.2
			V241.1z"/>
	</g>
	<polygon fill="#FFFFFF" points="119,220 64.1,220 60,224 56,220 1,220 1,187 119,187 	"/>
	<path fill="#FFFFFF" d="M29.5,229.6c-0.5-4-4.5-6-8.7-5.5c-3.3,0.4-6.6,3.1-6.8,6.9c-0.1,2.3,0.6,4.1,2.8,4.6
		c1-1.7-0.3-2.1-0.5-3.3c-0.8-5.1,5.8-8.5,9.3-5c2.4,2.4,0.8,10-3.1,9.2c-3.7-0.7,1.8-6.7-1.1-7.9c-2.4-1-3.7,2.9-2.6,4.9
		c-0.7,3.3-2.1,6.4-1.5,10.6c1.9-1.4,2.5-4,3.1-6.8c1,0.6,1.5,1.2,2.7,1.3C27.6,238.9,30.1,234,29.5,229.6z"/>
</g>
<g id="Googleplus">
	<rect y="124" fill="#DD4B39" width="120" height="62"/>
	<g>
		<path fill="#FFFFFF" d="M55.5,177.7c0.4,0,0.9-0.1,1.3-0.2v1.4c-0.2,0.1-0.5,0.2-0.8,0.2c-0.3,0.1-0.7,0.1-1,0.1
			c-1.7,0-2.6-0.9-2.6-2.8v-4.7h-1.2V171l1.3-0.7l0.6-1.8h1.1v1.9h2.5v1.4h-2.5v4.6c0,0.4,0.1,0.8,0.3,1
			C54.9,177.6,55.2,177.7,55.5,177.7z"/>
		<path fill="#FFFFFF" d="M62.2,179.2c-1.3,0-2.4-0.4-3.2-1.2c-0.8-0.8-1.1-1.9-1.1-3.2c0-1.4,0.4-2.5,1.1-3.3
			c0.7-0.8,1.7-1.2,2.9-1.2c1.1,0,2,0.3,2.7,1c0.7,0.7,1,1.6,1,2.9v1h-5.8c0,0.8,0.3,1.5,0.7,1.9c0.4,0.5,1,0.7,1.8,0.7
			c0.5,0,1,0,1.4-0.1c0.4-0.1,0.9-0.3,1.4-0.5v1.5c-0.4,0.2-0.9,0.4-1.4,0.5C63.4,179.2,62.8,179.2,62.2,179.2z M61.9,171.7
			c-0.6,0-1.1,0.2-1.4,0.6c-0.4,0.4-0.6,0.9-0.6,1.6h3.9c0-0.7-0.2-1.3-0.5-1.6C63,171.8,62.5,171.7,61.9,171.7z"/>
		<path fill="#FFFFFF" d="M67.6,168.1c0-0.3,0.1-0.6,0.3-0.8c0.2-0.2,0.4-0.3,0.8-0.3c0.3,0,0.6,0.1,0.8,0.3
			c0.2,0.2,0.3,0.4,0.3,0.8c0,0.3-0.1,0.6-0.3,0.7s-0.4,0.3-0.8,0.3c-0.3,0-0.6-0.1-0.8-0.3S67.6,168.4,67.6,168.1z M69.5,179.1
			h-1.8v-8.6h1.8V179.1z"/>
		<path fill="#FFFFFF" d="M73.8,179.1H72v-12.2h1.8V179.1z"/>
		<path fill="#FFFFFF" d="M80.2,179.2c-1.3,0-2.4-0.4-3.2-1.2c-0.8-0.8-1.1-1.9-1.1-3.2c0-1.4,0.4-2.5,1.1-3.3
			c0.7-0.8,1.7-1.2,2.9-1.2c1.1,0,2,0.3,2.7,1c0.7,0.7,1,1.6,1,2.9v1h-5.8c0,0.8,0.3,1.5,0.7,1.9c0.4,0.5,1,0.7,1.8,0.7
			c0.5,0,1,0,1.4-0.1c0.4-0.1,0.9-0.3,1.4-0.5v1.5c-0.4,0.2-0.9,0.4-1.4,0.5C81.3,179.2,80.8,179.2,80.2,179.2z M79.9,171.7
			c-0.6,0-1.1,0.2-1.4,0.6c-0.4,0.4-0.6,0.9-0.6,1.6h3.9c0-0.7-0.2-1.3-0.5-1.6C80.9,171.8,80.4,171.7,79.9,171.7z"/>
		<path fill="#FFFFFF" d="M93.2,179.1h-1.8v-5.3c0-0.7-0.1-1.2-0.4-1.5c-0.3-0.3-0.7-0.5-1.3-0.5c-0.8,0-1.3,0.2-1.7,0.7
			c-0.4,0.5-0.5,1.2-0.5,2.3v4.3h-1.8v-8.6h1.4l0.3,1.1h0.1c0.3-0.4,0.6-0.7,1.1-1c0.5-0.2,1-0.3,1.6-0.3c2.1,0,3.1,1.1,3.1,3.2
			V179.1z"/>
	</g>
	<polygon fill="#FFFFFF" points="119,158 64.1,158 60,162 56,158 1,158 1,125 119,125 	"/>
	<g>
		<path fill="#FFFFFF" d="M24.2,173.5l-0.9-0.7c-0.3-0.2-0.7-0.5-0.7-1.1c0-0.6,0.4-0.9,0.7-1.3c1.1-0.9,2.2-1.8,2.2-3.7
			c0-2-1.2-3-1.8-3.5h1.6l1.7-1.1h-5.1c-1.4,0-3.4,0.3-4.9,1.6c-1.1,1-1.7,2.3-1.7,3.5c0,2,1.6,4.1,4.3,4.1c0.3,0,0.5,0,0.8-0.1
			c-0.1,0.3-0.3,0.6-0.3,1c0,0.8,0.4,1.3,0.8,1.8c-1.2,0.1-3.4,0.2-5,1.2c-1.5,0.9-2,2.2-2,3.2c0,1.9,1.8,3.7,5.6,3.7
			c4.5,0,6.8-2.5,6.8-4.9C26.4,175.4,25.3,174.5,24.2,173.5z M20.8,170.5c-2.2,0-3.3-2.9-3.3-4.6c0-0.7,0.1-1.4,0.6-1.9
			c0.4-0.5,1.1-0.9,1.8-0.9c2.2,0,3.3,2.9,3.3,4.8c0,0.5-0.1,1.3-0.7,1.9C22.1,170.2,21.4,170.5,20.8,170.5z M20.8,181
			c-2.8,0-4.6-1.3-4.6-3.2c0-1.9,1.7-2.5,2.2-2.7c1.1-0.4,2.5-0.4,2.7-0.4c0.3,0,0.4,0,0.6,0c2,1.4,2.8,2.1,2.8,3.4
			C24.6,179.8,23.3,181,20.8,181z"/>
		<polygon fill="#FFFFFF" points="30.7,170.5 30.7,167.9 29.5,167.9 29.5,170.5 26.9,170.5 26.9,171.8 29.5,171.8 29.5,174.4 
			30.7,174.4 30.7,171.8 33.4,171.8 33.4,170.5 		"/>
	</g>
</g>
<g id="Twitter">
	<rect y="62" fill="#55ACEE" width="120" height="62"/>
	<g>
		<path fill="#FFFFFF" d="M55.5,115.7c0.4,0,0.9-0.1,1.3-0.2v1.4c-0.2,0.1-0.5,0.2-0.8,0.2c-0.3,0.1-0.7,0.1-1,0.1
			c-1.7,0-2.6-0.9-2.6-2.8v-4.7h-1.2V109l1.3-0.7l0.6-1.8h1.1v1.9h2.5v1.4h-2.5v4.6c0,0.4,0.1,0.8,0.3,1
			C54.9,115.6,55.2,115.7,55.5,115.7z"/>
		<path fill="#FFFFFF" d="M66.1,117.1l-1.1-4c-0.1-0.4-0.4-1.4-0.7-3h-0.1c-0.3,1.4-0.5,2.4-0.7,3l-1.1,4h-2l-2.4-8.6h1.9l1.1,4.3
			c0.2,1.1,0.4,2,0.5,2.7h0c0.1-0.4,0.1-0.8,0.2-1.3c0.1-0.5,0.2-0.9,0.3-1.1l1.3-4.5h2l1.3,4.5c0.1,0.3,0.2,0.6,0.3,1.2
			c0.1,0.5,0.2,0.9,0.2,1.2h0.1c0.1-0.6,0.3-1.5,0.5-2.7l1.1-4.3h1.8l-2.4,8.6H66.1z"/>
		<path fill="#FFFFFF" d="M75.8,117.2c-1.3,0-2.4-0.4-3.2-1.2c-0.8-0.8-1.1-1.9-1.1-3.2c0-1.4,0.4-2.5,1.1-3.3
			c0.7-0.8,1.7-1.2,2.9-1.2c1.1,0,2,0.3,2.7,1c0.7,0.7,1,1.6,1,2.9v1h-5.8c0,0.8,0.3,1.5,0.7,1.9c0.4,0.5,1,0.7,1.8,0.7
			c0.5,0,1,0,1.4-0.1c0.4-0.1,0.9-0.3,1.4-0.5v1.5c-0.4,0.2-0.9,0.4-1.4,0.5C76.9,117.2,76.4,117.2,75.8,117.2z M75.4,109.7
			c-0.6,0-1.1,0.2-1.4,0.6c-0.4,0.4-0.6,0.9-0.6,1.6h3.9c0-0.7-0.2-1.3-0.5-1.6C76.5,109.8,76,109.7,75.4,109.7z"/>
		<path fill="#FFFFFF" d="M85,117.2c-1.3,0-2.4-0.4-3.2-1.2c-0.8-0.8-1.1-1.9-1.1-3.2c0-1.4,0.4-2.5,1.1-3.3
			c0.7-0.8,1.7-1.2,2.9-1.2c1.1,0,2,0.3,2.7,1c0.7,0.7,1,1.6,1,2.9v1h-5.8c0,0.8,0.3,1.5,0.7,1.9c0.4,0.5,1,0.7,1.8,0.7
			c0.5,0,1,0,1.4-0.1c0.4-0.1,0.9-0.3,1.4-0.5v1.5c-0.4,0.2-0.9,0.4-1.4,0.5S85.6,117.2,85,117.2z M84.7,109.7
			c-0.6,0-1.1,0.2-1.4,0.6c-0.4,0.4-0.6,0.9-0.6,1.6h3.9c0-0.7-0.2-1.3-0.5-1.6S85.3,109.7,84.7,109.7z"/>
		<path fill="#FFFFFF" d="M93.7,115.7c0.4,0,0.9-0.1,1.3-0.2v1.4c-0.2,0.1-0.5,0.2-0.8,0.2c-0.3,0.1-0.7,0.1-1,0.1
			c-1.7,0-2.6-0.9-2.6-2.8v-4.7h-1.2V109l1.3-0.7l0.6-1.8h1.1v1.9h2.5v1.4h-2.5v4.6c0,0.4,0.1,0.8,0.3,1S93.3,115.7,93.7,115.7z"/>
	</g>
	<polygon fill="#FFFFFF" points="119,96 64.1,96 60,100 56,96 1,96 1,63 119,63 	"/>
	<path fill="#FFFFFF" d="M35,103.2c-0.8,0.4-1.7,0.6-2.6,0.7c0.9-0.6,1.6-1.4,2-2.5c-0.9,0.5-1.8,0.9-2.9,1.1
		c-0.8-0.9-2-1.4-3.3-1.4c-2.5,0-4.5,2-4.5,4.5c0,0.4,0,0.7,0.1,1c-3.8-0.2-7.1-2-9.3-4.7c-0.4,0.7-0.6,1.4-0.6,2.3
		c0,1.6,0.8,2.9,2,3.8c-0.7,0-1.4-0.2-2-0.6v0.1c0,2.2,1.6,4,3.6,4.4c-0.4,0.1-0.8,0.2-1.2,0.2c-0.3,0-0.6,0-0.8-0.1
		c0.6,1.8,2.2,3.1,4.2,3.1c-1.5,1.2-3.5,1.9-5.6,1.9c-0.4,0-0.7,0-1.1-0.1c2,1.3,4.4,2,6.9,2c8.3,0,12.8-6.9,12.8-12.8l0-0.6
		C33.6,104.9,34.4,104.1,35,103.2z"/>
</g>
<g id="facebook">
	<rect fill="#3B5998" width="120" height="62"/>
	<g>
		<path fill="#FFFFFF" d="M55.5,53.7c0.4,0,0.9-0.1,1.3-0.2v1.4c-0.2,0.1-0.5,0.2-0.8,0.2c-0.3,0.1-0.7,0.1-1,0.1
			c-1.7,0-2.6-0.9-2.6-2.8v-4.7h-1.2V47l1.3-0.7l0.6-1.8h1.1v1.9h2.5v1.4h-2.5v4.6c0,0.4,0.1,0.8,0.3,1
			C54.9,53.6,55.2,53.7,55.5,53.7z"/>
		<path fill="#FFFFFF" d="M62.2,55.2c-1.3,0-2.4-0.4-3.2-1.2c-0.8-0.8-1.1-1.9-1.1-3.2c0-1.4,0.4-2.5,1.1-3.3
			c0.7-0.8,1.7-1.2,2.9-1.2c1.1,0,2,0.3,2.7,1c0.7,0.7,1,1.6,1,2.9v1h-5.8c0,0.8,0.3,1.5,0.7,1.9c0.4,0.5,1,0.7,1.8,0.7
			c0.5,0,1,0,1.4-0.1c0.4-0.1,0.9-0.3,1.4-0.5v1.5c-0.4,0.2-0.9,0.4-1.4,0.5C63.4,55.2,62.8,55.2,62.2,55.2z M61.9,47.7
			c-0.6,0-1.1,0.2-1.4,0.6c-0.4,0.4-0.6,0.9-0.6,1.6h3.9c0-0.7-0.2-1.3-0.5-1.6C63,47.8,62.5,47.7,61.9,47.7z"/>
		<path fill="#FFFFFF" d="M67.6,44.1c0-0.3,0.1-0.6,0.3-0.8c0.2-0.2,0.4-0.3,0.8-0.3c0.3,0,0.6,0.1,0.8,0.3c0.2,0.2,0.3,0.4,0.3,0.8
			c0,0.3-0.1,0.6-0.3,0.7s-0.4,0.3-0.8,0.3c-0.3,0-0.6-0.1-0.8-0.3S67.6,44.4,67.6,44.1z M69.5,55.1h-1.8v-8.6h1.8V55.1z"/>
		<path fill="#FFFFFF" d="M73.8,55.1H72V42.9h1.8V55.1z"/>
		<path fill="#FFFFFF" d="M80.2,55.2c-1.3,0-2.4-0.4-3.2-1.2c-0.8-0.8-1.1-1.9-1.1-3.2c0-1.4,0.4-2.5,1.1-3.3
			c0.7-0.8,1.7-1.2,2.9-1.2c1.1,0,2,0.3,2.7,1c0.7,0.7,1,1.6,1,2.9v1h-5.8c0,0.8,0.3,1.5,0.7,1.9c0.4,0.5,1,0.7,1.8,0.7
			c0.5,0,1,0,1.4-0.1c0.4-0.1,0.9-0.3,1.4-0.5v1.5c-0.4,0.2-0.9,0.4-1.4,0.5C81.3,55.2,80.8,55.2,80.2,55.2z M79.9,47.7
			c-0.6,0-1.1,0.2-1.4,0.6c-0.4,0.4-0.6,0.9-0.6,1.6h3.9c0-0.7-0.2-1.3-0.5-1.6C80.9,47.8,80.4,47.7,79.9,47.7z"/>
		<path fill="#FFFFFF" d="M93.2,55.1h-1.8v-5.3c0-0.7-0.1-1.2-0.4-1.5c-0.3-0.3-0.7-0.5-1.3-0.5c-0.8,0-1.3,0.2-1.7,0.7
			c-0.4,0.5-0.5,1.2-0.5,2.3v4.3h-1.8v-8.6h1.4l0.3,1.1h0.1c0.3-0.4,0.6-0.7,1.1-1c0.5-0.2,1-0.3,1.6-0.3c2.1,0,3.1,1.1,3.1,3.2
			V55.1z"/>
	</g>
	<path id="Facebook__x28_alt_x29_" fill="#FFFFFF" d="M34,41.3c0-1.8-1.6-3.3-3.3-3.3H17.3c-1.8,0-3.3,1.6-3.3,3.3v13.3
		c0,1.8,1.6,3.3,3.3,3.3H24v-7.6h-2.4v-3.3H24v-1.3c0-2.2,1.7-4.3,3.8-4.3h2.7v3.3h-2.7c-0.3,0-0.6,0.4-0.6,0.9v1.3h3.3v3.3h-3.3V58
		h3.6c1.8,0,3.3-1.6,3.3-3.3V41.3z"/>
	<polygon fill="#FFFFFF" points="119,34 64.1,34 60,38 56,34 1,34 1,1 119,1 	"/>
</g>
</svg>
