<?xml version="1.0" encoding="utf-8"?>
<!-- Generator: Adobe Illustrator 17.1.0, SVG Export Plug-In . SVG Version: 6.00 Build 0)  -->
<!DOCTYPE svg PUBLIC "-//W3C//DTD SVG 1.1//EN" "http://www.w3.org/Graphics/SVG/1.1/DTD/svg11.dtd">
<svg version="1.1" id="Ebene_1" xmlns="http://www.w3.org/2000/svg" xmlns:xlink="http://www.w3.org/1999/xlink" x="0px" y="0px"
	 viewBox="0 0 72 156" enable-background="new 0 0 72 156" xml:space="preserve">
<g id="linkedin">
	<rect x="0" y="130" fill="#0976B4" width="72" height="26"/>
	<g>
		<path fill="#FFFFFF" d="M3.5,149.4h1.8c0.3,0,0.5-0.2,0.5-0.5v-8c0-0.3-0.2-0.5-0.5-0.5H3.5c-0.3,0-0.5,0.2-0.5,0.5v8
			C3,149.2,3.2,149.4,3.5,149.4z"/>
		<path fill="#FFFFFF" d="M3.5,139.1h1.8c0.3,0,0.5-0.2,0.5-0.5v-1.6c0-0.3-0.2-0.5-0.5-0.5H3.5c-0.3,0-0.5,0.2-0.5,0.5v1.6
			C3,138.9,3.2,139.1,3.5,139.1z"/>
		<path fill="#FFFFFF" d="M16.3,141.5c-0.3-0.3-0.6-0.6-1.1-0.8c-0.5-0.2-1-0.3-1.7-0.3c-1.2,0-2.3,0.5-3.1,1.4
			c-0.2,0.2-0.3,0.1-0.3-0.1V141c0-0.3-0.2-0.5-0.5-0.5H8.1c-0.3,0-0.5,0.2-0.5,0.5v8c0,0.3,0.2,0.5,0.5,0.5h1.8
			c0.3,0,0.5-0.2,0.5-0.5v-2.8c0-1.2,0.1-1.9,0.2-2.4s0.4-0.8,0.8-1s0.8-0.4,1.3-0.4c0.4,0,0.7,0.1,0.9,0.3c0.3,0.2,0.5,0.4,0.6,0.8
			c0.1,0.3,0.2,1,0.2,2.2v3.4c0,0.3,0.2,0.5,0.5,0.5h1.8c0.3,0,0.5-0.2,0.5-0.5v-4.5c0-0.8-0.1-1.4-0.2-1.8
			C16.7,142.2,16.6,141.8,16.3,141.5z"/>
	</g>
</g>
<g id="xing">
	<rect x="0" y="104" fill="#026466" width="72" height="26"/>
	<g>
		<path fill="#FFFFFF" d="M5.7,120c0.2,0,0.5-0.1,0.6-0.4c1.6-2.8,2.4-4.3,2.5-4.4l-1.6-2.8C7,112.1,6.8,112,6.6,112H4.2
			c-0.1,0-0.3,0-0.3,0.1c-0.1,0.1-0.1,0.2,0,0.4l1.6,2.7c0,0,0,0,0,0L3,119.5c-0.1,0.1-0.1,0.2,0,0.3c0.1,0.1,0.2,0.2,0.3,0.2H5.7z"
			/>
		<path fill="#FFFFFF" d="M16.3,108.8h-2.3c-0.3,0-0.5,0.1-0.6,0.4c-3.3,5.9-5,8.9-5.1,9.1l3.3,6c0.2,0.3,0.4,0.4,0.6,0.4h2.3
			c0.1,0,0.2,0,0.3-0.1c0.1-0.1,0.1-0.2,0-0.4l-3.3-5.9v0l5.1-9c0.1-0.1,0.1-0.3,0-0.4C16.5,108.9,16.4,108.8,16.3,108.8z"/>
	</g>
</g>
<g id="pinteres">
	<rect x="0" y="78" fill="#CC2127" width="72" height="26"/>
	<path fill="#FFFFFF" d="M15.4,86.4c-0.4-3.2-3.6-4.8-6.9-4.4c-2.7,0.3-5.3,2.4-5.4,5.5c-0.1,1.9,0.5,3.3,2.2,3.7
		C6,89.9,5,89.6,4.8,88.6c-0.7-4,4.7-6.8,7.5-4c1.9,2,0.7,8-2.5,7.4c-3-0.6,1.5-5.4-0.9-6.3c-1.9-0.8-3,2.3-2,3.9
		c-0.5,2.7-1.7,5.2-1.2,8.5c1.5-1.1,2-3.2,2.5-5.4c0.8,0.5,1.2,0.9,2.1,1C13.9,93.9,15.9,90,15.4,86.4z"/>
</g>
<g id="Googleplus">
	<rect x="0" y="52" fill="#DD4B39" width="72" height="26"/>
	<g>
		<path fill="#FFFFFF" d="M11.4,66.2l-0.8-0.6c-0.2-0.2-0.6-0.5-0.6-0.9c0-0.5,0.3-0.8,0.6-1.1c0.9-0.7,1.8-1.5,1.8-3
			c0-1.6-1-2.5-1.5-2.9h1.3l1.4-0.9H9.5c-1.2,0-2.8,0.3-4,1.3c-0.9,0.8-1.4,1.9-1.4,2.9c0,1.7,1.3,3.4,3.6,3.4c0.2,0,0.4,0,0.7,0
			c-0.1,0.3-0.2,0.5-0.2,0.8c0,0.7,0.3,1.1,0.6,1.5c-1,0.1-2.8,0.2-4.1,1C3.4,68.3,3,69.4,3,70.2c0,1.6,1.5,3.1,4.6,3.1
			c3.7,0,5.6-2,5.6-4.1C13.2,67.7,12.4,67,11.4,66.2z M8.6,63.7c-1.8,0-2.7-2.4-2.7-3.8c0-0.6,0.1-1.1,0.5-1.6
			c0.3-0.4,0.9-0.7,1.5-0.7c1.8,0,2.7,2.4,2.7,3.9c0,0.4,0,1.1-0.5,1.6C9.7,63.4,9.2,63.7,8.6,63.7z M8.7,72.3
			c-2.3,0-3.8-1.1-3.8-2.6c0-1.5,1.4-2,1.8-2.2c0.9-0.3,2.1-0.3,2.2-0.3c0.2,0,0.3,0,0.5,0c1.6,1.2,2.3,1.7,2.3,2.8
			C11.8,71.3,10.7,72.3,8.7,72.3z"/>
		<polygon fill="#FFFFFF" points="16.8,63.7 16.8,61.5 15.8,61.5 15.8,63.7 13.6,63.7 13.6,64.7 15.8,64.7 15.8,66.9 16.8,66.9 
			16.8,64.7 19,64.7 19,63.7 		"/>
	</g>
</g>
<g id="Twitter">
	<rect x="0" y="26" fill="#55ACEE" width="72" height="26"/>
	<path fill="#FFFFFF" d="M19,35c-0.6,0.3-1.2,0.4-1.9,0.5c0.7-0.4,1.2-1,1.4-1.8c-0.6,0.4-1.3,0.6-2.1,0.8c-0.6-0.6-1.5-1-2.4-1
		c-1.8,0-3.3,1.5-3.3,3.3c0,0.3,0,0.5,0.1,0.7C8.2,37.3,5.7,36,4.1,34c-0.3,0.5-0.4,1-0.4,1.6c0,1.1,0.6,2.1,1.5,2.7
		c-0.5,0-1-0.2-1.5-0.4v0c0,1.6,1.1,2.9,2.6,3.2c-0.3,0.1-0.6,0.1-0.9,0.1c-0.2,0-0.4,0-0.6-0.1c0.4,1.3,1.6,2.3,3.1,2.3
		C6.7,44.5,5.3,45,3.8,45c-0.3,0-0.5,0-0.8,0c1.5,0.9,3.2,1.5,5,1.5c6,0,9.3-5,9.3-9.3l0-0.4C18,36.2,18.6,35.6,19,35z"/>
</g>
<g id="facebook">
	<rect x="0" fill="#3B5998" width="72" height="26"/>
	<path id="Facebook__x28_alt_x29_" fill="#FFFFFF" d="M19,7.7C19,6.3,17.7,5,16.3,5H5.7C4.3,5,3,6.3,3,7.7v10.7
		C3,19.7,4.3,21,5.7,21H11v-6H9v-2.7h2v-1c0-1.8,1.3-3.4,3-3.4h2.2v2.7H14c-0.2,0-0.5,0.3-0.5,0.7v1.1h2.7V15h-2.7v6h2.8
		c1.4,0,2.7-1.3,2.7-2.7V7.7z"/>
</g>
</svg>
